<?xml version="1.0" encoding="UTF-8"?>
<svg width="150" height="166" viewBox="0 0 150 166" fill="rgba(158, 67, 209, 1)" xmlns="http://www.w3.org/2000/svg">
<path class="dot" d="M4.33436 8.9192C6.72815 8.9192 8.66869 6.92258 8.66869 4.4596C8.66869 1.99663 6.72815 0 4.33436 0C1.94056 0 0 1.99663 0 4.4596C0 6.92258 1.94056 8.9192 4.33436 8.9192Z"/>
<path class="dot" d="M32.4701 8.9192C34.8639 8.9192 36.8044 6.92258 36.8044 4.4596C36.8044 1.99663 34.8639 0 32.4701 0C30.0763 0 28.1357 1.99663 28.1357 4.4596C28.1357 6.92258 30.0763 8.9192 32.4701 8.9192Z"/>
<path class="dot" d="M60.5687 8.9192C62.9625 8.9192 64.9031 6.92258 64.9031 4.4596C64.9031 1.99663 62.9625 0 60.5687 0C58.1749 0 56.2344 1.99663 56.2344 4.4596C56.2344 6.92258 58.1749 8.9192 60.5687 8.9192Z"/>
<path class="dot" d="M88.6674 8.9192C91.0612 8.9192 93.0017 6.92258 93.0017 4.4596C93.0017 1.99663 91.0612 0 88.6674 0C86.2736 0 84.333 1.99663 84.333 4.4596C84.333 6.92258 86.2736 8.9192 88.6674 8.9192Z"/>
<path class="dot" d="M116.803 8.9192C119.197 8.9192 121.137 6.92258 121.137 4.4596C121.137 1.99663 119.197 0 116.803 0C114.409 0 112.469 1.99663 112.469 4.4596C112.469 6.92258 114.409 8.9192 116.803 8.9192Z"/>
<path class="dot" d="M144.902 8.9192C147.296 8.9192 149.236 6.92258 149.236 4.4596C149.236 1.99663 147.296 0 144.902 0C142.508 0 140.567 1.99663 140.567 4.4596C140.567 6.92258 142.508 8.9192 144.902 8.9192Z"/>
<path class="dot" d="M4.33436 31.2556C6.72815 31.2556 8.66869 29.259 8.66869 26.796C8.66869 24.3331 6.72815 22.3364 4.33436 22.3364C1.94056 22.3364 0 24.3331 0 26.796C0 29.259 1.94056 31.2556 4.33436 31.2556Z"/>
<path class="dot" d="M32.4701 31.2556C34.8639 31.2556 36.8044 29.259 36.8044 26.796C36.8044 24.3331 34.8639 22.3364 32.4701 22.3364C30.0763 22.3364 28.1357 24.3331 28.1357 26.796C28.1357 29.259 30.0763 31.2556 32.4701 31.2556Z"/>
<path class="dot" d="M60.5687 31.2556C62.9625 31.2556 64.9031 29.259 64.9031 26.796C64.9031 24.3331 62.9625 22.3364 60.5687 22.3364C58.1749 22.3364 56.2344 24.3331 56.2344 26.796C56.2344 29.259 58.1749 31.2556 60.5687 31.2556Z"/>
<path class="dot" d="M88.6674 31.2556C91.0612 31.2556 93.0017 29.259 93.0017 26.796C93.0017 24.3331 91.0612 22.3364 88.6674 22.3364C86.2736 22.3364 84.333 24.3331 84.333 26.796C84.333 29.259 86.2736 31.2556 88.6674 31.2556Z"/>
<path class="dot" d="M116.803 31.2556C119.197 31.2556 121.137 29.259 121.137 26.796C121.137 24.3331 119.197 22.3364 116.803 22.3364C114.409 22.3364 112.469 24.3331 112.469 26.796C112.469 29.259 114.409 31.2556 116.803 31.2556Z"/>
<path class="dot" d="M144.902 31.2556C147.296 31.2556 149.236 29.259 149.236 26.796C149.236 24.3331 147.296 22.3364 144.902 22.3364C142.508 22.3364 140.567 24.3331 140.567 26.796C140.567 29.259 142.508 31.2556 144.902 31.2556Z"/>
<path class="dot" d="M4.33436 53.6307C6.72815 53.6307 8.66869 51.634 8.66869 49.1711C8.66869 46.7081 6.72815 44.7114 4.33436 44.7114C1.94056 44.7114 0 46.7081 0 49.1711C0 51.634 1.94056 53.6307 4.33436 53.6307Z"/>
<path class="dot" d="M32.4701 53.6307C34.8639 53.6307 36.8044 51.634 36.8044 49.1711C36.8044 46.7081 34.8639 44.7114 32.4701 44.7114C30.0763 44.7114 28.1357 46.7081 28.1357 49.1711C28.1357 51.634 30.0763 53.6307 32.4701 53.6307Z"/>
<path class="dot" d="M60.5687 53.6307C62.9625 53.6307 64.9031 51.634 64.9031 49.1711C64.9031 46.7081 62.9625 44.7114 60.5687 44.7114C58.1749 44.7114 56.2344 46.7081 56.2344 49.1711C56.2344 51.634 58.1749 53.6307 60.5687 53.6307Z"/>
<path class="dot" d="M88.6674 53.6307C91.0612 53.6307 93.0017 51.634 93.0017 49.1711C93.0017 46.7081 91.0612 44.7114 88.6674 44.7114C86.2736 44.7114 84.333 46.7081 84.333 49.1711C84.333 51.634 86.2736 53.6307 88.6674 53.6307Z"/>
<path class="dot" d="M116.803 53.6307C119.197 53.6307 121.137 51.634 121.137 49.1711C121.137 46.7081 119.197 44.7114 116.803 44.7114C114.409 44.7114 112.469 46.7081 112.469 49.1711C112.469 51.634 114.409 53.6307 116.803 53.6307Z"/>
<path class="dot" d="M144.902 53.6307C147.296 53.6307 149.236 51.634 149.236 49.1711C149.236 46.7081 147.296 44.7114 144.902 44.7114C142.508 44.7114 140.567 46.7081 140.567 49.1711C140.567 51.634 142.508 53.6307 144.902 53.6307Z"/>
<path class="dot" d="M4.33436 75.9671C6.72815 75.9671 8.66869 73.9704 8.66869 71.5075C8.66869 69.0445 6.72815 67.0479 4.33436 67.0479C1.94056 67.0479 0 69.0445 0 71.5075C0 73.9704 1.94056 75.9671 4.33436 75.9671Z"/>
<path class="dot" d="M32.4701 75.9671C34.8639 75.9671 36.8044 73.9704 36.8044 71.5075C36.8044 69.0445 34.8639 67.0479 32.4701 67.0479C30.0763 67.0479 28.1357 69.0445 28.1357 71.5075C28.1357 73.9704 30.0763 75.9671 32.4701 75.9671Z"/>
<path class="dot" d="M60.5687 75.9671C62.9625 75.9671 64.9031 73.9704 64.9031 71.5075C64.9031 69.0445 62.9625 67.0479 60.5687 67.0479C58.1749 67.0479 56.2344 69.0445 56.2344 71.5075C56.2344 73.9704 58.1749 75.9671 60.5687 75.9671Z"/>
<path class="dot" d="M88.6674 75.9671C91.0612 75.9671 93.0017 73.9704 93.0017 71.5075C93.0017 69.0445 91.0612 67.0479 88.6674 67.0479C86.2736 67.0479 84.333 69.0445 84.333 71.5075C84.333 73.9704 86.2736 75.9671 88.6674 75.9671Z"/>
<path class="dot" d="M116.803 75.9671C119.197 75.9671 121.137 73.9704 121.137 71.5075C121.137 69.0445 119.197 67.0479 116.803 67.0479C114.409 67.0479 112.469 69.0445 112.469 71.5075C112.469 73.9704 114.409 75.9671 116.803 75.9671Z"/>
<path class="dot" d="M144.902 75.9671C147.296 75.9671 149.236 73.9704 149.236 71.5075C149.236 69.0445 147.296 67.0479 144.902 67.0479C142.508 67.0479 140.567 69.0445 140.567 71.5075C140.567 73.9704 142.508 75.9671 144.902 75.9671Z"/>
<path class="dot" d="M4.33436 98.3421C6.72815 98.3421 8.66869 96.3454 8.66869 93.8825C8.66869 91.4195 6.72815 89.4229 4.33436 89.4229C1.94056 89.4229 0 91.4195 0 93.8825C0 96.3454 1.94056 98.3421 4.33436 98.3421Z"/>
<path class="dot" d="M32.4701 98.3421C34.8639 98.3421 36.8044 96.3454 36.8044 93.8825C36.8044 91.4195 34.8639 89.4229 32.4701 89.4229C30.0763 89.4229 28.1357 91.4195 28.1357 93.8825C28.1357 96.3454 30.0763 98.3421 32.4701 98.3421Z"/>
<path class="dot" d="M60.5687 98.3421C62.9625 98.3421 64.9031 96.3454 64.9031 93.8825C64.9031 91.4195 62.9625 89.4229 60.5687 89.4229C58.1749 89.4229 56.2344 91.4195 56.2344 93.8825C56.2344 96.3454 58.1749 98.3421 60.5687 98.3421Z"/>
<path class="dot" d="M88.6674 98.3421C91.0612 98.3421 93.0017 96.3454 93.0017 93.8825C93.0017 91.4195 91.0612 89.4229 88.6674 89.4229C86.2736 89.4229 84.333 91.4195 84.333 93.8825C84.333 96.3454 86.2736 98.3421 88.6674 98.3421Z"/>
<path class="dot" d="M116.803 98.3421C119.197 98.3421 121.137 96.3454 121.137 93.8825C121.137 91.4195 119.197 89.4229 116.803 89.4229C114.409 89.4229 112.469 91.4195 112.469 93.8825C112.469 96.3454 114.409 98.3421 116.803 98.3421Z"/>
<path class="dot" d="M144.902 98.3421C147.296 98.3421 149.236 96.3454 149.236 93.8825C149.236 91.4195 147.296 89.4229 144.902 89.4229C142.508 89.4229 140.567 91.4195 140.567 93.8825C140.567 96.3454 142.508 98.3421 144.902 98.3421Z"/>
<path class="dot" d="M4.33436 120.679C6.72815 120.679 8.66869 118.682 8.66869 116.219C8.66869 113.756 6.72815 111.759 4.33436 111.759C1.94056 111.759 0 113.756 0 116.219C0 118.682 1.94056 120.679 4.33436 120.679Z"/>
<path class="dot" d="M32.4701 120.679C34.8639 120.679 36.8044 118.682 36.8044 116.219C36.8044 113.756 34.8639 111.759 32.4701 111.759C30.0763 111.759 28.1357 113.756 28.1357 116.219C28.1357 118.682 30.0763 120.679 32.4701 120.679Z"/>
<path class="dot" d="M60.5687 120.679C62.9625 120.679 64.9031 118.682 64.9031 116.219C64.9031 113.756 62.9625 111.759 60.5687 111.759C58.1749 111.759 56.2344 113.756 56.2344 116.219C56.2344 118.682 58.1749 120.679 60.5687 120.679Z"/>
<path class="dot" d="M88.6674 120.679C91.0612 120.679 93.0017 118.682 93.0017 116.219C93.0017 113.756 91.0612 111.759 88.6674 111.759C86.2736 111.759 84.333 113.756 84.333 116.219C84.333 118.682 86.2736 120.679 88.6674 120.679Z"/>
<path class="dot" d="M116.803 120.679C119.197 120.679 121.137 118.682 121.137 116.219C121.137 113.756 119.197 111.759 116.803 111.759C114.409 111.759 112.469 113.756 112.469 116.219C112.469 118.682 114.409 120.679 116.803 120.679Z"/>
<path class="dot" d="M144.902 120.679C147.296 120.679 149.236 118.682 149.236 116.219C149.236 113.756 147.296 111.759 144.902 111.759C142.508 111.759 140.567 113.756 140.567 116.219C140.567 118.682 142.508 120.679 144.902 120.679Z"/>
<path class="dot" d="M4.33436 143.053C6.72815 143.053 8.66869 141.057 8.66869 138.594C8.66869 136.131 6.72815 134.134 4.33436 134.134C1.94056 134.134 0 136.131 0 138.594C0 141.057 1.94056 143.053 4.33436 143.053Z"/>
<path class="dot" d="M32.4701 143.053C34.8639 143.053 36.8044 141.057 36.8044 138.594C36.8044 136.131 34.8639 134.134 32.4701 134.134C30.0763 134.134 28.1357 136.131 28.1357 138.594C28.1357 141.057 30.0763 143.053 32.4701 143.053Z"/>
<path class="dot" d="M60.5687 143.053C62.9625 143.053 64.9031 141.057 64.9031 138.594C64.9031 136.131 62.9625 134.134 60.5687 134.134C58.1749 134.134 56.2344 136.131 56.2344 138.594C56.2344 141.057 58.1749 143.053 60.5687 143.053Z"/>
<path class="dot" d="M88.6674 143.053C91.0612 143.053 93.0017 141.057 93.0017 138.594C93.0017 136.131 91.0612 134.134 88.6674 134.134C86.2736 134.134 84.333 136.131 84.333 138.594C84.333 141.057 86.2736 143.053 88.6674 143.053Z"/>
<path class="dot" d="M116.803 143.053C119.197 143.053 121.137 141.057 121.137 138.594C121.137 136.131 119.197 134.134 116.803 134.134C114.409 134.134 112.469 136.131 112.469 138.594C112.469 141.057 114.409 143.053 116.803 143.053Z"/>
<path class="dot" d="M144.902 143.053C147.296 143.053 149.236 141.057 149.236 138.594C149.236 136.131 147.296 134.134 144.902 134.134C142.508 134.134 140.567 136.131 140.567 138.594C140.567 141.057 142.508 143.053 144.902 143.053Z"/>
<path class="dot" d="M4.33436 165.39C6.72815 165.39 8.66869 163.393 8.66869 160.93C8.66869 158.467 6.72815 156.471 4.33436 156.471C1.94056 156.471 0 158.467 0 160.93C0 163.393 1.94056 165.39 4.33436 165.39Z"/>
<path class="dot" d="M32.4701 165.39C34.8639 165.39 36.8044 163.393 36.8044 160.93C36.8044 158.467 34.8639 156.471 32.4701 156.471C30.0763 156.471 28.1357 158.467 28.1357 160.93C28.1357 163.393 30.0763 165.39 32.4701 165.39Z"/>
<path class="dot" d="M60.5687 165.39C62.9625 165.39 64.9031 163.393 64.9031 160.93C64.9031 158.467 62.9625 156.471 60.5687 156.471C58.1749 156.471 56.2344 158.467 56.2344 160.93C56.2344 163.393 58.1749 165.39 60.5687 165.39Z"/>
<path class="dot" d="M88.6674 165.39C91.0612 165.39 93.0017 163.393 93.0017 160.93C93.0017 158.467 91.0612 156.471 88.6674 156.471C86.2736 156.471 84.333 158.467 84.333 160.93C84.333 163.393 86.2736 165.39 88.6674 165.39Z"/>
<path class="dot" d="M116.803 165.39C119.197 165.39 121.137 163.393 121.137 160.93C121.137 158.467 119.197 156.471 116.803 156.471C114.409 156.471 112.469 158.467 112.469 160.93C112.469 163.393 114.409 165.39 116.803 165.39Z"/>
<path class="dot" d="M144.902 165.39C147.296 165.39 149.236 163.393 149.236 160.93C149.236 158.467 147.296 156.471 144.902 156.471C142.508 156.471 140.567 158.467 140.567 160.93C140.567 163.393 142.508 165.39 144.902 165.39Z"/>
</svg>
